<svg xmlns="http://www.w3.org/2000/svg" xmlns:xlink="http://www.w3.org/1999/xlink" xmlns:lucid="lucid" width="1400" height="747"><g transform="translate(-120 -124)" lucid:page-tab-id="0_0"><path d="M1020 144h220v456h-220z" fill="#fff"/><path d="M1020 144h220v456h-220zM1020 184h220" stroke="#000" stroke-width="2" fill="none"/><use xlink:href="#a" transform="matrix(1,0,0,1,1030,144) translate(47.074999999999996 23.6)"/><use xlink:href="#b" transform="matrix(1,0,0,1,1025,186.5) translate(0 17.1)"/><use xlink:href="#c" transform="matrix(1,0,0,1,1025,218.5) translate(0 17.1)"/><use xlink:href="#d" transform="matrix(1,0,0,1,1025,250.5) translate(0 17.1)"/><use xlink:href="#e" transform="matrix(1,0,0,1,1025,282.5) translate(0 17.1)"/><use xlink:href="#f" transform="matrix(1,0,0,1,1025,314.5) translate(0 17.1)"/><use xlink:href="#g" transform="matrix(1,0,0,1,1025,346.5) translate(0 17.1)"/><use xlink:href="#h" transform="matrix(1,0,0,1,1025,378.5) translate(0 17.1)"/><use xlink:href="#i" transform="matrix(1,0,0,1,1025,410.5) translate(0 17.1)"/><use xlink:href="#j" transform="matrix(1,0,0,1,1025,442.5) translate(0 17.1)"/><use xlink:href="#k" transform="matrix(1,0,0,1,1025,474.5) translate(0 17.1)"/><use xlink:href="#l" transform="matrix(1,0,0,1,1025,506.5) translate(0 17.1)"/><use xlink:href="#m" transform="matrix(1,0,0,1,1025,538.5) translate(0 17.1)"/><use xlink:href="#n" transform="matrix(1,0,0,1,1025,570.5) translate(0 17.1)"/><path d="M1300 144h200v136h-200z" fill="#fff"/><path d="M1300 144h200v136h-200zM1300 184h200" stroke="#000" stroke-width="2" fill="none"/><use xlink:href="#o" transform="matrix(1,0,0,1,1310,144) translate(15.099999999999994 23.6)"/><use xlink:href="#p" transform="matrix(1,0,0,1,1305,186.5) translate(0 17.1)"/><use xlink:href="#q" transform="matrix(1,0,0,1,1305,218.5) translate(0 17.1)"/><use xlink:href="#r" transform="matrix(1,0,0,1,1305,250.5) translate(0 17.1)"/><path d="M1299 264.52h-29V200h-29" stroke="#000" stroke-width="2" fill="none"/><path d="M1299 255.4l-18.2 9.12 18.2 9.1-.9 1.8-21.78-10.9 21.8-10.9z"/><path fill="#fff"/><path d="M1279.55 274.52h-2v-20h2zM1241 201h-1v-2h1z"/><path d="M440 144h200v104H440z" fill="#fff"/><path d="M440 144h200v104H440zM440 184h200" stroke="#000" stroke-width="2" fill="none"/><use xlink:href="#s" transform="matrix(1,0,0,1,450,144) translate(67.05 23.6)"/><use xlink:href="#t" transform="matrix(1,0,0,1,445,186.5) translate(0 17.1)"/><use xlink:href="#u" transform="matrix(1,0,0,1,445,218.5) translate(0 17.1)"/><path d="M740 144h200v104H740z" fill="#fff"/><path d="M740 144h200v104H740zM740 184h200" stroke="#000" stroke-width="2" fill="none"/><use xlink:href="#v" transform="matrix(1,0,0,1,750,144) translate(18.625 23.6)"/><use xlink:href="#w" transform="matrix(1,0,0,1,745,186.5) translate(0 17.1)"/><use xlink:href="#x" transform="matrix(1,0,0,1,745,218.5) translate(0 17.1)"/><path d="M739 232h-49v-31.96h-49" stroke="#000" stroke-width="2" fill="none"/><path d="M739 222.9l-18.2 9.1 18.2 9.1-.9 1.8-21.78-10.9 21.8-10.9zM641 201.04h-1v-2h1z"/><path d="M941 200h78" stroke="#000" stroke-width="2" fill="none"/><path d="M941 201h-1v-2h1zM1020 201h-1v-2h1z"/><path d="M740 272h200v168H740z" fill="#fff"/><path d="M740 272h200v168H740zM740 312h200" stroke="#000" stroke-width="2" fill="none"/><use xlink:href="#y" transform="matrix(1,0,0,1,750,272) translate(14.174999999999997 23.6)"/><use xlink:href="#t" transform="matrix(1,0,0,1,745,314.5) translate(0 17.1)"/><use xlink:href="#r" transform="matrix(1,0,0,1,745,346.5) translate(0 17.1)"/><use xlink:href="#z" transform="matrix(1,0,0,1,745,378.5) translate(0 17.1)"/><use xlink:href="#A" transform="matrix(1,0,0,1,745,410.5) translate(0 17.1)"/><path d="M941 360.04h39V200h39" stroke="#000" stroke-width="2" fill="none"/><path d="M963.68 360.04l-21.8 10.9-.88-1.8 18.2-9.1-18.2-9.1.9-1.8z"/><path fill="#fff"/><path d="M962.45 370.04h-2v-20h2zM1020 201h-1v-2h1z"/><path d="M440 320h200v392H440z" fill="#fff"/><path d="M440 320h200v392H440zM440 360h200" stroke="#000" stroke-width="2" fill="none"/><use xlink:href="#B" transform="matrix(1,0,0,1,450,320) translate(62.5 23.6)"/><use xlink:href="#t" transform="matrix(1,0,0,1,445,362.5) translate(0 17.1)"/><use xlink:href="#C" transform="matrix(1,0,0,1,445,394.5) translate(0 17.1)"/><use xlink:href="#D" transform="matrix(1,0,0,1,445,426.5) translate(0 17.1)"/><use xlink:href="#E" transform="matrix(1,0,0,1,445,458.5) translate(0 17.1)"/><use xlink:href="#F" transform="matrix(1,0,0,1,445,490.5) translate(0 17.1)"/><use xlink:href="#G" transform="matrix(1,0,0,1,445,522.5) translate(0 17.1)"/><use xlink:href="#H" transform="matrix(1,0,0,1,445,554.5) translate(0 17.1)"/><use xlink:href="#I" transform="matrix(1,0,0,1,445,586.5) translate(0 17.1)"/><use xlink:href="#J" transform="matrix(1,0,0,1,445,618.5) translate(0 17.1)"/><use xlink:href="#n" transform="matrix(1,0,0,1,445,650.5) translate(0 17.1)"/><use xlink:href="#K" transform="matrix(1,0,0,1,445,682.5) translate(0 17.1)"/><path d="M730 500h200v136H730z" fill="#fff"/><path d="M730 500h200v136H730zM730 540h200" stroke="#000" stroke-width="2" fill="none"/><use xlink:href="#L" transform="matrix(1,0,0,1,740,500) translate(64.05 23.6)"/><use xlink:href="#t" transform="matrix(1,0,0,1,735,542.5) translate(0 17.1)"/><use xlink:href="#M" transform="matrix(1,0,0,1,735,574.5) translate(0 17.1)"/><use xlink:href="#D" transform="matrix(1,0,0,1,735,606.5) translate(0 17.1)"/><path d="M729 556h-44v76h-44" stroke="#000" stroke-width="2" fill="none"/><path d="M729 546.9l-18.2 9.1 18.2 9.1-.9 1.8-21.78-10.9 21.8-10.9zM641 633h-1v-2h1z"/><path d="M980 660h200v168H980z" fill="#fff"/><path d="M980 660h200v168H980zM980 700h200" stroke="#000" stroke-width="2" fill="none"/><use xlink:href="#N" transform="matrix(1,0,0,1,990,660) translate(66.55 23.6)"/><use xlink:href="#t" transform="matrix(1,0,0,1,985,702.5) translate(0 17.1)"/><use xlink:href="#O" transform="matrix(1,0,0,1,985,734.5) translate(0 17.1)"/><use xlink:href="#P" transform="matrix(1,0,0,1,985,766.5) translate(0 17.1)"/><use xlink:href="#J" transform="matrix(1,0,0,1,985,798.5) translate(0 17.1)"/><path d="M1240 584h60v132h-119" stroke="#000" stroke-width="2" fill="none"/><path/><path d="M1181 717h-1v-2h1z"/><path d="M931 555.88h24v256.8h24" stroke="#000" stroke-width="2" fill="none"/><path d="M953.68 555.88l-21.8 10.9-.88-1.8 18.2-9.1-18.2-9.1.9-1.8z"/><path fill="#fff"/><path d="M952.45 565.88h-2v-20h2zM980 813.68h-1v-2h1z"/><path d="M1181 715.72h39V860H681V665.48h-40" stroke="#000" stroke-width="2" fill="none"/><path d="M1203.68 715.72l-21.8 10.9-.88-1.8 18.2-9.1-18.2-9.1.9-1.8z"/><path fill="#fff"/><path d="M1202.45 725.72h-2v-20h2zM641 666.48h-1v-2h1z"/><path d="M140 320h200v136H140z" fill="#fff"/><path d="M140 320h200v136H140zM140 360h200" stroke="#000" stroke-width="2" fill="none"/><use xlink:href="#Q" transform="matrix(1,0,0,1,150,320) translate(53.55 23.6)"/><use xlink:href="#t" transform="matrix(1,0,0,1,145,362.5) translate(0 17.1)"/><use xlink:href="#C" transform="matrix(1,0,0,1,145,394.5) translate(0 17.1)"/><use xlink:href="#D" transform="matrix(1,0,0,1,145,426.5) translate(0 17.1)"/><path d="M341 375.88h49.5V696H440" stroke="#000" stroke-width="2" fill="none"/><path d="M341 376.88h-1v-2h1z"/><path/><defs><path d="M205 0l-28-72H64L36 0H1l101-248h38L239 0h-34zm-38-99l-47-123c-12 45-31 82-46 123h93" id="R"/><path d="M135-143c-3-34-86-38-87 0 15 53 115 12 119 90S17 21 10-45l28-5c4 36 97 45 98 0-10-56-113-15-118-90-4-57 82-63 122-42 12 7 21 19 24 35" id="S"/><path d="M115-194c55 1 70 41 70 98S169 2 115 4C84 4 66-9 55-30l1 105H24l-1-265h31l2 30c10-21 28-34 59-34zm-8 174c40 0 45-34 45-75s-6-73-45-74c-42 0-51 32-51 76 0 43 10 73 51 73" id="T"/><path d="M190 0L58-211 59 0H30v-248h39L202-35l-2-213h31V0h-41" id="U"/><path d="M100-194c63 0 86 42 84 106H49c0 40 14 67 53 68 26 1 43-12 49-29l28 8c-11 28-37 45-77 45C44 4 14-33 15-96c1-61 26-98 85-98zm52 81c6-60-76-77-97-28-3 7-6 17-6 28h103" id="V"/><path d="M59-47c-2 24 18 29 38 22v24C64 9 27 4 27-40v-127H5v-23h24l9-43h21v43h35v23H59v120" id="W"/><path d="M232-93c-1 65-40 97-104 97C67 4 28-28 28-90v-158h33c8 89-33 224 67 224 102 0 64-133 71-224h33v155" id="X"/><path d="M114-163C36-179 61-72 57 0H25l-1-190h30c1 12-1 29 2 39 6-27 23-49 58-41v29" id="Y"/><g id="a"><use transform="matrix(0.05,0,0,0.05,0,0)" xlink:href="#R"/><use transform="matrix(0.05,0,0,0.05,12,0)" xlink:href="#S"/><use transform="matrix(0.05,0,0,0.05,21,0)" xlink:href="#T"/><use transform="matrix(0.05,0,0,0.05,31,0)" xlink:href="#U"/><use transform="matrix(0.05,0,0,0.05,43.95,0)" xlink:href="#V"/><use transform="matrix(0.05,0,0,0.05,53.95,0)" xlink:href="#W"/><use transform="matrix(0.05,0,0,0.05,58.95,0)" xlink:href="#X"/><use transform="matrix(0.05,0,0,0.05,71.9,0)" xlink:href="#S"/><use transform="matrix(0.05,0,0,0.05,80.9,0)" xlink:href="#V"/><use transform="matrix(0.05,0,0,0.05,90.9,0)" xlink:href="#Y"/><use transform="matrix(0.05,0,0,0.05,96.85000000000001,0)" xlink:href="#S"/></g><path d="M33 0v-248h34V0H33" id="Z"/><path d="M30-248c118-7 216 8 213 122C240-48 200 0 122 0H30v-248zM63-27c89 8 146-16 146-99s-60-101-146-95v194" id="aa"/><g id="b"><use transform="matrix(0.05,0,0,0.05,0,0)" xlink:href="#Z"/><use transform="matrix(0.05,0,0,0.05,5,0)" xlink:href="#aa"/></g><path d="M30 0v-248h187v28H63v79h144v27H63v87h162V0H30" id="ab"/><path d="M210-169c-67 3-38 105-44 169h-31v-121c0-29-5-50-35-48C34-165 62-65 56 0H25l-1-190h30c1 10-1 24 2 32 10-44 99-50 107 0 11-21 27-35 58-36 85-2 47 119 55 194h-31v-121c0-29-5-49-35-48" id="ac"/><path d="M141-36C126-15 110 5 73 4 37 3 15-17 15-53c-1-64 63-63 125-63 3-35-9-54-41-54-24 1-41 7-42 31l-33-3c5-37 33-52 76-52 45 0 72 20 72 64v82c-1 20 7 32 28 27v20c-31 9-61-2-59-35zM48-53c0 20 12 33 32 33 41-3 63-29 60-74-43 2-92-5-92 41" id="ad"/><path d="M24-231v-30h32v30H24zM24 0v-190h32V0H24" id="ae"/><path d="M24 0v-261h32V0H24" id="af"/><g id="c"><use transform="matrix(0.05,0,0,0.05,0,0)" xlink:href="#ab"/><use transform="matrix(0.05,0,0,0.05,12,0)" xlink:href="#ac"/><use transform="matrix(0.05,0,0,0.05,26.950000000000003,0)" xlink:href="#ad"/><use transform="matrix(0.05,0,0,0.05,36.95,0)" xlink:href="#ae"/><use transform="matrix(0.05,0,0,0.05,40.900000000000006,0)" xlink:href="#af"/></g><path d="M212-179c-10-28-35-45-73-45-59 0-87 40-87 99 0 60 29 101 89 101 43 0 62-24 78-52l27 14C228-24 195 4 139 4 59 4 22-46 18-125c-6-104 99-153 187-111 19 9 31 26 39 46" id="ag"/><path d="M100-194c62-1 85 37 85 99 1 63-27 99-86 99S16-35 15-95c0-66 28-99 85-99zM99-20c44 1 53-31 53-75 0-43-8-75-51-75s-53 32-53 75 10 74 51 75" id="ah"/><path d="M117-194c89-4 53 116 60 194h-32v-121c0-31-8-49-39-48C34-167 62-67 57 0H25l-1-190h30c1 10-1 24 2 32 11-22 29-35 61-36" id="ai"/><path d="M101-234c-31-9-42 10-38 44h38v23H63V0H32v-167H5v-23h27c-7-52 17-82 69-68v24" id="aj"/><path d="M85-194c31 0 48 13 60 33l-1-100h32l1 261h-30c-2-10 0-23-3-31C134-8 116 4 85 4 32 4 16-35 15-94c0-66 23-100 70-100zm9 24c-40 0-46 34-46 75 0 40 6 74 45 74 42 0 51-32 51-76 0-42-9-74-50-73" id="ak"/><g id="d"><use transform="matrix(0.05,0,0,0.05,0,0)" xlink:href="#ab"/><use transform="matrix(0.05,0,0,0.05,12,0)" xlink:href="#ac"/><use transform="matrix(0.05,0,0,0.05,26.950000000000003,0)" xlink:href="#ad"/><use transform="matrix(0.05,0,0,0.05,36.95,0)" xlink:href="#ae"/><use transform="matrix(0.05,0,0,0.05,40.900000000000006,0)" xlink:href="#af"/><use transform="matrix(0.05,0,0,0.05,44.85000000000001,0)" xlink:href="#ag"/><use transform="matrix(0.05,0,0,0.05,57.80000000000001,0)" xlink:href="#ah"/><use transform="matrix(0.05,0,0,0.05,67.80000000000001,0)" xlink:href="#ai"/><use transform="matrix(0.05,0,0,0.05,77.80000000000001,0)" xlink:href="#aj"/><use transform="matrix(0.05,0,0,0.05,82.80000000000001,0)" xlink:href="#ae"/><use transform="matrix(0.05,0,0,0.05,86.75000000000001,0)" xlink:href="#Y"/><use transform="matrix(0.05,0,0,0.05,92.70000000000002,0)" xlink:href="#ac"/><use transform="matrix(0.05,0,0,0.05,107.65000000000003,0)" xlink:href="#V"/><use transform="matrix(0.05,0,0,0.05,117.65000000000003,0)" xlink:href="#ak"/></g><path d="M30-248c87 1 191-15 191 75 0 78-77 80-158 76V0H30v-248zm33 125c57 0 124 11 124-50 0-59-68-47-124-48v98" id="al"/><path d="M206 0h-36l-40-164L89 0H53L-1-190h32L70-26l43-164h34l41 164 42-164h31" id="am"/><path d="M197 0v-115H63V0H30v-248h33v105h134v-105h34V0h-34" id="an"/><path d="M106-169C34-169 62-67 57 0H25v-261h32l-1 103c12-21 28-36 61-36 89 0 53 116 60 194h-32v-121c2-32-8-49-39-48" id="ao"/><g id="e"><use transform="matrix(0.05,0,0,0.05,0,0)" xlink:href="#al"/><use transform="matrix(0.05,0,0,0.05,12,0)" xlink:href="#ad"/><use transform="matrix(0.05,0,0,0.05,22,0)" xlink:href="#S"/><use transform="matrix(0.05,0,0,0.05,31,0)" xlink:href="#S"/><use transform="matrix(0.05,0,0,0.05,40,0)" xlink:href="#am"/><use transform="matrix(0.05,0,0,0.05,52.95,0)" xlink:href="#ah"/><use transform="matrix(0.05,0,0,0.05,62.95,0)" xlink:href="#Y"/><use transform="matrix(0.05,0,0,0.05,68.9,0)" xlink:href="#ak"/><use transform="matrix(0.05,0,0,0.05,78.9,0)" xlink:href="#an"/><use transform="matrix(0.05,0,0,0.05,91.85000000000001,0)" xlink:href="#ad"/><use transform="matrix(0.05,0,0,0.05,101.85000000000001,0)" xlink:href="#S"/><use transform="matrix(0.05,0,0,0.05,110.85000000000001,0)" xlink:href="#ao"/></g><path d="M185-189c-5-48-123-54-124 2 14 75 158 14 163 119 3 78-121 87-175 55-17-10-28-26-33-46l33-7c5 56 141 63 141-1 0-78-155-14-162-118-5-82 145-84 179-34 5 7 8 16 11 25" id="ap"/><path d="M96-169c-40 0-48 33-48 73s9 75 48 75c24 0 41-14 43-38l32 2c-6 37-31 61-74 61-59 0-76-41-82-99-10-93 101-131 147-64 4 7 5 14 7 22l-32 3c-4-21-16-35-41-35" id="aq"/><path d="M84 4C-5 8 30-112 23-190h32v120c0 31 7 50 39 49 72-2 45-101 50-169h31l1 190h-30c-1-10 1-25-2-33-11 22-28 36-60 37" id="ar"/><path d="M179-190L93 31C79 59 56 82 12 73V49c39 6 53-20 64-50L1-190h34L92-34l54-156h33" id="as"/><g id="f"><use transform="matrix(0.05,0,0,0.05,0,0)" xlink:href="#ap"/><use transform="matrix(0.05,0,0,0.05,12,0)" xlink:href="#V"/><use transform="matrix(0.05,0,0,0.05,22,0)" xlink:href="#aq"/><use transform="matrix(0.05,0,0,0.05,31,0)" xlink:href="#ar"/><use transform="matrix(0.05,0,0,0.05,41,0)" xlink:href="#Y"/><use transform="matrix(0.05,0,0,0.05,46.95,0)" xlink:href="#ae"/><use transform="matrix(0.05,0,0,0.05,50.900000000000006,0)" xlink:href="#W"/><use transform="matrix(0.05,0,0,0.05,55.900000000000006,0)" xlink:href="#as"/><use transform="matrix(0.05,0,0,0.05,64.9,0)" xlink:href="#ap"/><use transform="matrix(0.05,0,0,0.05,76.9,0)" xlink:href="#W"/><use transform="matrix(0.05,0,0,0.05,81.9,0)" xlink:href="#ad"/><use transform="matrix(0.05,0,0,0.05,91.9,0)" xlink:href="#ac"/><use transform="matrix(0.05,0,0,0.05,106.85000000000001,0)" xlink:href="#T"/></g><path d="M115-194c53 0 69 39 70 98 0 66-23 100-70 100C84 3 66-7 56-30L54 0H23l1-261h32v101c10-23 28-34 59-34zm-8 174c40 0 45-34 45-75 0-40-5-75-45-74-42 0-51 32-51 76 0 43 10 73 51 73" id="at"/><g id="g"><use transform="matrix(0.05,0,0,0.05,0,0)" xlink:href="#al"/><use transform="matrix(0.05,0,0,0.05,12,0)" xlink:href="#ao"/><use transform="matrix(0.05,0,0,0.05,22,0)" xlink:href="#ah"/><use transform="matrix(0.05,0,0,0.05,32,0)" xlink:href="#ai"/><use transform="matrix(0.05,0,0,0.05,42,0)" xlink:href="#V"/><use transform="matrix(0.05,0,0,0.05,52,0)" xlink:href="#U"/><use transform="matrix(0.05,0,0,0.05,64.95,0)" xlink:href="#ar"/><use transform="matrix(0.05,0,0,0.05,74.95,0)" xlink:href="#ac"/><use transform="matrix(0.05,0,0,0.05,89.9,0)" xlink:href="#at"/><use transform="matrix(0.05,0,0,0.05,99.9,0)" xlink:href="#V"/><use transform="matrix(0.05,0,0,0.05,109.9,0)" xlink:href="#Y"/></g><g id="h"><use transform="matrix(0.05,0,0,0.05,0,0)" xlink:href="#al"/><use transform="matrix(0.05,0,0,0.05,12,0)" xlink:href="#ao"/><use transform="matrix(0.05,0,0,0.05,22,0)" xlink:href="#ah"/><use transform="matrix(0.05,0,0,0.05,32,0)" xlink:href="#ai"/><use transform="matrix(0.05,0,0,0.05,42,0)" xlink:href="#V"/><use transform="matrix(0.05,0,0,0.05,52,0)" xlink:href="#U"/><use transform="matrix(0.05,0,0,0.05,64.95,0)" xlink:href="#ar"/><use transform="matrix(0.05,0,0,0.05,74.95,0)" xlink:href="#ac"/><use transform="matrix(0.05,0,0,0.05,89.9,0)" xlink:href="#at"/><use transform="matrix(0.05,0,0,0.05,99.9,0)" xlink:href="#V"/><use transform="matrix(0.05,0,0,0.05,109.9,0)" xlink:href="#Y"/><use transform="matrix(0.05,0,0,0.05,115.85000000000001,0)" xlink:href="#ag"/><use transform="matrix(0.05,0,0,0.05,128.8,0)" xlink:href="#ah"/><use transform="matrix(0.05,0,0,0.05,138.8,0)" xlink:href="#ai"/><use transform="matrix(0.05,0,0,0.05,148.8,0)" xlink:href="#aj"/><use transform="matrix(0.05,0,0,0.05,153.8,0)" xlink:href="#ae"/><use transform="matrix(0.05,0,0,0.05,157.75,0)" xlink:href="#Y"/><use transform="matrix(0.05,0,0,0.05,163.7,0)" xlink:href="#ac"/><use transform="matrix(0.05,0,0,0.05,178.64999999999998,0)" xlink:href="#V"/><use transform="matrix(0.05,0,0,0.05,188.64999999999998,0)" xlink:href="#ak"/></g><path d="M127-220V0H93v-220H8v-28h204v28h-85" id="au"/><path d="M63-220v92h138v28H63V0H30v-248h175v28H63" id="av"/><g id="i"><use transform="matrix(0.05,0,0,0.05,0,0)" xlink:href="#au"/><use transform="matrix(0.05,0,0,0.05,9.950000000000001,0)" xlink:href="#am"/><use transform="matrix(0.05,0,0,0.05,22.900000000000002,0)" xlink:href="#ah"/><use transform="matrix(0.05,0,0,0.05,32.900000000000006,0)" xlink:href="#av"/><use transform="matrix(0.05,0,0,0.05,43.85000000000001,0)" xlink:href="#ad"/><use transform="matrix(0.05,0,0,0.05,53.85,0)" xlink:href="#aq"/><use transform="matrix(0.05,0,0,0.05,62.85,0)" xlink:href="#W"/><use transform="matrix(0.05,0,0,0.05,67.85000000000001,0)" xlink:href="#ah"/><use transform="matrix(0.05,0,0,0.05,77.85000000000001,0)" xlink:href="#Y"/><use transform="matrix(0.05,0,0,0.05,83.80000000000001,0)" xlink:href="#ab"/><use transform="matrix(0.05,0,0,0.05,95.80000000000001,0)" xlink:href="#ai"/><use transform="matrix(0.05,0,0,0.05,105.80000000000001,0)" xlink:href="#ad"/><use transform="matrix(0.05,0,0,0.05,115.80000000000001,0)" xlink:href="#at"/><use transform="matrix(0.05,0,0,0.05,125.80000000000001,0)" xlink:href="#af"/><use transform="matrix(0.05,0,0,0.05,129.75,0)" xlink:href="#V"/><use transform="matrix(0.05,0,0,0.05,139.75,0)" xlink:href="#ak"/></g><path d="M30 0v-248h33v221h125V0H30" id="aw"/><path d="M143 0L79-87 56-68V0H24v-261h32v163l83-92h37l-77 82L181 0h-38" id="ax"/><g id="j"><use transform="matrix(0.05,0,0,0.05,0,0)" xlink:href="#aw"/><use transform="matrix(0.05,0,0,0.05,10,0)" xlink:href="#ah"/><use transform="matrix(0.05,0,0,0.05,20,0)" xlink:href="#aq"/><use transform="matrix(0.05,0,0,0.05,29,0)" xlink:href="#ax"/><use transform="matrix(0.05,0,0,0.05,38,0)" xlink:href="#ah"/><use transform="matrix(0.05,0,0,0.05,48,0)" xlink:href="#ar"/><use transform="matrix(0.05,0,0,0.05,58,0)" xlink:href="#W"/><use transform="matrix(0.05,0,0,0.05,63,0)" xlink:href="#ab"/><use transform="matrix(0.05,0,0,0.05,75,0)" xlink:href="#ai"/><use transform="matrix(0.05,0,0,0.05,85,0)" xlink:href="#ak"/><use transform="matrix(0.05,0,0,0.05,95,0)" xlink:href="#aa"/><use transform="matrix(0.05,0,0,0.05,107.95,0)" xlink:href="#ad"/><use transform="matrix(0.05,0,0,0.05,117.95,0)" xlink:href="#W"/><use transform="matrix(0.05,0,0,0.05,122.95,0)" xlink:href="#V"/><use transform="matrix(0.05,0,0,0.05,132.95,0)" xlink:href="#X"/><use transform="matrix(0.05,0,0,0.05,145.89999999999998,0)" xlink:href="#W"/><use transform="matrix(0.05,0,0,0.05,150.89999999999998,0)" xlink:href="#aq"/></g><g id="k"><use transform="matrix(0.05,0,0,0.05,0,0)" xlink:href="#aw"/><use transform="matrix(0.05,0,0,0.05,10,0)" xlink:href="#ah"/><use transform="matrix(0.05,0,0,0.05,20,0)" xlink:href="#aq"/><use transform="matrix(0.05,0,0,0.05,29,0)" xlink:href="#ax"/><use transform="matrix(0.05,0,0,0.05,38,0)" xlink:href="#ah"/><use transform="matrix(0.05,0,0,0.05,48,0)" xlink:href="#ar"/><use transform="matrix(0.05,0,0,0.05,58,0)" xlink:href="#W"/><use transform="matrix(0.05,0,0,0.05,63,0)" xlink:href="#ab"/><use transform="matrix(0.05,0,0,0.05,75,0)" xlink:href="#ai"/><use transform="matrix(0.05,0,0,0.05,85,0)" xlink:href="#ad"/><use transform="matrix(0.05,0,0,0.05,95,0)" xlink:href="#at"/><use transform="matrix(0.05,0,0,0.05,105,0)" xlink:href="#af"/><use transform="matrix(0.05,0,0,0.05,108.95,0)" xlink:href="#V"/><use transform="matrix(0.05,0,0,0.05,118.95,0)" xlink:href="#ak"/></g><g id="l"><use transform="matrix(0.05,0,0,0.05,0,0)" xlink:href="#R"/><use transform="matrix(0.05,0,0,0.05,12,0)" xlink:href="#aq"/><use transform="matrix(0.05,0,0,0.05,21,0)" xlink:href="#aq"/><use transform="matrix(0.05,0,0,0.05,30,0)" xlink:href="#V"/><use transform="matrix(0.05,0,0,0.05,40,0)" xlink:href="#S"/><use transform="matrix(0.05,0,0,0.05,49,0)" xlink:href="#S"/><use transform="matrix(0.05,0,0,0.05,58,0)" xlink:href="#av"/><use transform="matrix(0.05,0,0,0.05,68.95,0)" xlink:href="#ad"/><use transform="matrix(0.05,0,0,0.05,78.95,0)" xlink:href="#ae"/><use transform="matrix(0.05,0,0,0.05,82.9,0)" xlink:href="#af"/><use transform="matrix(0.05,0,0,0.05,86.85000000000001,0)" xlink:href="#V"/><use transform="matrix(0.05,0,0,0.05,96.85000000000001,0)" xlink:href="#ak"/><use transform="matrix(0.05,0,0,0.05,106.85000000000001,0)" xlink:href="#ag"/><use transform="matrix(0.05,0,0,0.05,119.80000000000001,0)" xlink:href="#ah"/><use transform="matrix(0.05,0,0,0.05,129.8,0)" xlink:href="#ar"/><use transform="matrix(0.05,0,0,0.05,139.8,0)" xlink:href="#ai"/><use transform="matrix(0.05,0,0,0.05,149.8,0)" xlink:href="#W"/></g><g id="m"><use transform="matrix(0.05,0,0,0.05,0,0)" xlink:href="#X"/><use transform="matrix(0.05,0,0,0.05,12.950000000000001,0)" xlink:href="#S"/><use transform="matrix(0.05,0,0,0.05,21.950000000000003,0)" xlink:href="#V"/><use transform="matrix(0.05,0,0,0.05,31.950000000000003,0)" xlink:href="#Y"/><use transform="matrix(0.05,0,0,0.05,37.900000000000006,0)" xlink:href="#U"/><use transform="matrix(0.05,0,0,0.05,50.85000000000001,0)" xlink:href="#ad"/><use transform="matrix(0.05,0,0,0.05,60.85,0)" xlink:href="#ac"/><use transform="matrix(0.05,0,0,0.05,75.80000000000001,0)" xlink:href="#V"/></g><path d="M233-177c-1 41-23 64-60 70L243 0h-38l-65-103H63V0H30v-248c88 3 205-21 203 71zM63-129c60-2 137 13 137-47 0-61-80-42-137-45v92" id="ay"/><g id="n"><use transform="matrix(0.05,0,0,0.05,0,0)" xlink:href="#X"/><use transform="matrix(0.05,0,0,0.05,12.950000000000001,0)" xlink:href="#S"/><use transform="matrix(0.05,0,0,0.05,21.950000000000003,0)" xlink:href="#V"/><use transform="matrix(0.05,0,0,0.05,31.950000000000003,0)" xlink:href="#Y"/><use transform="matrix(0.05,0,0,0.05,37.900000000000006,0)" xlink:href="#S"/><use transform="matrix(0.05,0,0,0.05,46.900000000000006,0)" xlink:href="#ay"/><use transform="matrix(0.05,0,0,0.05,59.85,0)" xlink:href="#V"/><use transform="matrix(0.05,0,0,0.05,69.85000000000001,0)" xlink:href="#aj"/><use transform="matrix(0.05,0,0,0.05,74.85000000000001,0)" xlink:href="#Z"/><use transform="matrix(0.05,0,0,0.05,79.85000000000001,0)" xlink:href="#ak"/></g><path d="M177-190C167-65 218 103 67 71c-23-6-38-20-44-43l32-5c15 47 100 32 89-28v-30C133-14 115 1 83 1 29 1 15-40 15-95c0-56 16-97 71-98 29-1 48 16 59 35 1-10 0-23 2-32h30zM94-22c36 0 50-32 50-73 0-42-14-75-50-75-39 0-46 34-46 75s6 73 46 73" id="az"/><g id="o"><use transform="matrix(0.05,0,0,0.05,0,0)" xlink:href="#R"/><use transform="matrix(0.05,0,0,0.05,12,0)" xlink:href="#S"/><use transform="matrix(0.05,0,0,0.05,21,0)" xlink:href="#T"/><use transform="matrix(0.05,0,0,0.05,31,0)" xlink:href="#U"/><use transform="matrix(0.05,0,0,0.05,43.95,0)" xlink:href="#V"/><use transform="matrix(0.05,0,0,0.05,53.95,0)" xlink:href="#W"/><use transform="matrix(0.05,0,0,0.05,58.95,0)" xlink:href="#X"/><use transform="matrix(0.05,0,0,0.05,71.9,0)" xlink:href="#S"/><use transform="matrix(0.05,0,0,0.05,80.9,0)" xlink:href="#V"/><use transform="matrix(0.05,0,0,0.05,90.9,0)" xlink:href="#Y"/><use transform="matrix(0.05,0,0,0.05,96.85000000000001,0)" xlink:href="#aw"/><use transform="matrix(0.05,0,0,0.05,106.85000000000001,0)" xlink:href="#ah"/><use transform="matrix(0.05,0,0,0.05,116.85000000000001,0)" xlink:href="#az"/><use transform="matrix(0.05,0,0,0.05,126.85000000000001,0)" xlink:href="#ae"/><use transform="matrix(0.05,0,0,0.05,130.8,0)" xlink:href="#ai"/><use transform="matrix(0.05,0,0,0.05,140.8,0)" xlink:href="#S"/></g><path d="M108 0H70L1-190h34L89-25l56-165h34" id="aA"/><g id="p"><use transform="matrix(0.05,0,0,0.05,0,0)" xlink:href="#aw"/><use transform="matrix(0.05,0,0,0.05,10,0)" xlink:href="#ah"/><use transform="matrix(0.05,0,0,0.05,20,0)" xlink:href="#az"/><use transform="matrix(0.05,0,0,0.05,30,0)" xlink:href="#ae"/><use transform="matrix(0.05,0,0,0.05,33.95,0)" xlink:href="#ai"/><use transform="matrix(0.05,0,0,0.05,43.95,0)" xlink:href="#al"/><use transform="matrix(0.05,0,0,0.05,55.95,0)" xlink:href="#Y"/><use transform="matrix(0.05,0,0,0.05,61.900000000000006,0)" xlink:href="#ah"/><use transform="matrix(0.05,0,0,0.05,71.9,0)" xlink:href="#aA"/><use transform="matrix(0.05,0,0,0.05,80.9,0)" xlink:href="#ae"/><use transform="matrix(0.05,0,0,0.05,84.85000000000001,0)" xlink:href="#ak"/><use transform="matrix(0.05,0,0,0.05,94.85000000000001,0)" xlink:href="#V"/><use transform="matrix(0.05,0,0,0.05,104.85000000000001,0)" xlink:href="#Y"/></g><path d="M194 0L95-120 63-95V0H30v-248h33v124l119-124h40L117-140 236 0h-42" id="aB"/><g id="q"><use transform="matrix(0.05,0,0,0.05,0,0)" xlink:href="#al"/><use transform="matrix(0.05,0,0,0.05,12,0)" xlink:href="#Y"/><use transform="matrix(0.05,0,0,0.05,17.95,0)" xlink:href="#ah"/><use transform="matrix(0.05,0,0,0.05,27.950000000000003,0)" xlink:href="#aA"/><use transform="matrix(0.05,0,0,0.05,36.95,0)" xlink:href="#ae"/><use transform="matrix(0.05,0,0,0.05,40.900000000000006,0)" xlink:href="#ak"/><use transform="matrix(0.05,0,0,0.05,50.900000000000006,0)" xlink:href="#V"/><use transform="matrix(0.05,0,0,0.05,60.900000000000006,0)" xlink:href="#Y"/><use transform="matrix(0.05,0,0,0.05,66.85000000000001,0)" xlink:href="#aB"/><use transform="matrix(0.05,0,0,0.05,78.85000000000001,0)" xlink:href="#V"/><use transform="matrix(0.05,0,0,0.05,88.85000000000001,0)" xlink:href="#as"/></g><g id="r"><use transform="matrix(0.05,0,0,0.05,0,0)" xlink:href="#X"/><use transform="matrix(0.05,0,0,0.05,12.950000000000001,0)" xlink:href="#S"/><use transform="matrix(0.05,0,0,0.05,21.950000000000003,0)" xlink:href="#V"/><use transform="matrix(0.05,0,0,0.05,31.950000000000003,0)" xlink:href="#Y"/><use transform="matrix(0.05,0,0,0.05,37.900000000000006,0)" xlink:href="#Z"/><use transform="matrix(0.05,0,0,0.05,42.900000000000006,0)" xlink:href="#ak"/></g><g id="s"><use transform="matrix(0.05,0,0,0.05,0,0)" xlink:href="#ay"/><use transform="matrix(0.05,0,0,0.05,12.950000000000001,0)" xlink:href="#ah"/><use transform="matrix(0.05,0,0,0.05,22.950000000000003,0)" xlink:href="#af"/><use transform="matrix(0.05,0,0,0.05,26.900000000000002,0)" xlink:href="#V"/><use transform="matrix(0.05,0,0,0.05,36.900000000000006,0)" xlink:href="#S"/></g><g id="t"><use transform="matrix(0.05,0,0,0.05,0,0)" xlink:href="#Z"/><use transform="matrix(0.05,0,0,0.05,5,0)" xlink:href="#ak"/></g><g id="u"><use transform="matrix(0.05,0,0,0.05,0,0)" xlink:href="#U"/><use transform="matrix(0.05,0,0,0.05,12.950000000000001,0)" xlink:href="#ad"/><use transform="matrix(0.05,0,0,0.05,22.950000000000003,0)" xlink:href="#ac"/><use transform="matrix(0.05,0,0,0.05,37.900000000000006,0)" xlink:href="#V"/></g><g id="v"><use transform="matrix(0.05,0,0,0.05,0,0)" xlink:href="#R"/><use transform="matrix(0.05,0,0,0.05,12,0)" xlink:href="#S"/><use transform="matrix(0.05,0,0,0.05,21,0)" xlink:href="#T"/><use transform="matrix(0.05,0,0,0.05,31,0)" xlink:href="#U"/><use transform="matrix(0.05,0,0,0.05,43.95,0)" xlink:href="#V"/><use transform="matrix(0.05,0,0,0.05,53.95,0)" xlink:href="#W"/><use transform="matrix(0.05,0,0,0.05,58.95,0)" xlink:href="#X"/><use transform="matrix(0.05,0,0,0.05,71.9,0)" xlink:href="#S"/><use transform="matrix(0.05,0,0,0.05,80.9,0)" xlink:href="#V"/><use transform="matrix(0.05,0,0,0.05,90.9,0)" xlink:href="#Y"/><use transform="matrix(0.05,0,0,0.05,96.85000000000001,0)" xlink:href="#ay"/><use transform="matrix(0.05,0,0,0.05,109.80000000000001,0)" xlink:href="#ah"/><use transform="matrix(0.05,0,0,0.05,119.80000000000001,0)" xlink:href="#af"/><use transform="matrix(0.05,0,0,0.05,123.75,0)" xlink:href="#V"/><use transform="matrix(0.05,0,0,0.05,133.75,0)" xlink:href="#S"/></g><g id="w"><use transform="matrix(0.05,0,0,0.05,0,0)" xlink:href="#X"/><use transform="matrix(0.05,0,0,0.05,12.950000000000001,0)" xlink:href="#S"/><use transform="matrix(0.05,0,0,0.05,21.950000000000003,0)" xlink:href="#V"/><use transform="matrix(0.05,0,0,0.05,31.950000000000003,0)" xlink:href="#Y"/><use transform="matrix(0.05,0,0,0.05,37.900000000000006,0)" xlink:href="#ay"/><use transform="matrix(0.05,0,0,0.05,50.85000000000001,0)" xlink:href="#V"/><use transform="matrix(0.05,0,0,0.05,60.85,0)" xlink:href="#aj"/><use transform="matrix(0.05,0,0,0.05,65.85000000000001,0)" xlink:href="#Z"/><use transform="matrix(0.05,0,0,0.05,70.85000000000001,0)" xlink:href="#ak"/></g><g id="x"><use transform="matrix(0.05,0,0,0.05,0,0)" xlink:href="#ay"/><use transform="matrix(0.05,0,0,0.05,12.950000000000001,0)" xlink:href="#ah"/><use transform="matrix(0.05,0,0,0.05,22.950000000000003,0)" xlink:href="#af"/><use transform="matrix(0.05,0,0,0.05,26.900000000000002,0)" xlink:href="#V"/><use transform="matrix(0.05,0,0,0.05,36.900000000000006,0)" xlink:href="#ay"/><use transform="matrix(0.05,0,0,0.05,49.85000000000001,0)" xlink:href="#V"/><use transform="matrix(0.05,0,0,0.05,59.85,0)" xlink:href="#aj"/><use transform="matrix(0.05,0,0,0.05,64.85000000000001,0)" xlink:href="#Z"/><use transform="matrix(0.05,0,0,0.05,69.85000000000001,0)" xlink:href="#ak"/></g><g id="y"><use transform="matrix(0.05,0,0,0.05,0,0)" xlink:href="#R"/><use transform="matrix(0.05,0,0,0.05,12,0)" xlink:href="#S"/><use transform="matrix(0.05,0,0,0.05,21,0)" xlink:href="#T"/><use transform="matrix(0.05,0,0,0.05,31,0)" xlink:href="#U"/><use transform="matrix(0.05,0,0,0.05,43.95,0)" xlink:href="#V"/><use transform="matrix(0.05,0,0,0.05,53.95,0)" xlink:href="#W"/><use transform="matrix(0.05,0,0,0.05,58.95,0)" xlink:href="#X"/><use transform="matrix(0.05,0,0,0.05,71.9,0)" xlink:href="#S"/><use transform="matrix(0.05,0,0,0.05,80.9,0)" xlink:href="#V"/><use transform="matrix(0.05,0,0,0.05,90.9,0)" xlink:href="#Y"/><use transform="matrix(0.05,0,0,0.05,96.85000000000001,0)" xlink:href="#ag"/><use transform="matrix(0.05,0,0,0.05,109.80000000000001,0)" xlink:href="#af"/><use transform="matrix(0.05,0,0,0.05,113.75,0)" xlink:href="#ad"/><use transform="matrix(0.05,0,0,0.05,123.75,0)" xlink:href="#ae"/><use transform="matrix(0.05,0,0,0.05,127.7,0)" xlink:href="#ac"/><use transform="matrix(0.05,0,0,0.05,142.65,0)" xlink:href="#S"/></g><g id="z"><use transform="matrix(0.05,0,0,0.05,0,0)" xlink:href="#ag"/><use transform="matrix(0.05,0,0,0.05,12.950000000000001,0)" xlink:href="#af"/><use transform="matrix(0.05,0,0,0.05,16.900000000000002,0)" xlink:href="#ad"/><use transform="matrix(0.05,0,0,0.05,26.900000000000002,0)" xlink:href="#ae"/><use transform="matrix(0.05,0,0,0.05,30.85,0)" xlink:href="#ac"/><use transform="matrix(0.05,0,0,0.05,45.800000000000004,0)" xlink:href="#au"/><use transform="matrix(0.05,0,0,0.05,55.75,0)" xlink:href="#as"/><use transform="matrix(0.05,0,0,0.05,64.75,0)" xlink:href="#T"/><use transform="matrix(0.05,0,0,0.05,74.75,0)" xlink:href="#V"/></g><path d="M137 0h-34L2-248h35l83 218 83-218h36" id="aC"/><g id="A"><use transform="matrix(0.05,0,0,0.05,0,0)" xlink:href="#ag"/><use transform="matrix(0.05,0,0,0.05,12.950000000000001,0)" xlink:href="#af"/><use transform="matrix(0.05,0,0,0.05,16.900000000000002,0)" xlink:href="#ad"/><use transform="matrix(0.05,0,0,0.05,26.900000000000002,0)" xlink:href="#ae"/><use transform="matrix(0.05,0,0,0.05,30.85,0)" xlink:href="#ac"/><use transform="matrix(0.05,0,0,0.05,45.800000000000004,0)" xlink:href="#aC"/><use transform="matrix(0.05,0,0,0.05,56.45,0)" xlink:href="#ad"/><use transform="matrix(0.05,0,0,0.05,66.45,0)" xlink:href="#af"/><use transform="matrix(0.05,0,0,0.05,70.4,0)" xlink:href="#ar"/><use transform="matrix(0.05,0,0,0.05,80.4,0)" xlink:href="#V"/></g><g id="B"><use transform="matrix(0.05,0,0,0.05,0,0)" xlink:href="#ab"/><use transform="matrix(0.05,0,0,0.05,12,0)" xlink:href="#aA"/><use transform="matrix(0.05,0,0,0.05,21,0)" xlink:href="#V"/><use transform="matrix(0.05,0,0,0.05,31,0)" xlink:href="#ai"/><use transform="matrix(0.05,0,0,0.05,41,0)" xlink:href="#W"/><use transform="matrix(0.05,0,0,0.05,46,0)" xlink:href="#S"/></g><g id="C"><use transform="matrix(0.05,0,0,0.05,0,0)" xlink:href="#au"/><use transform="matrix(0.05,0,0,0.05,10.3,0)" xlink:href="#ae"/><use transform="matrix(0.05,0,0,0.05,14.25,0)" xlink:href="#W"/><use transform="matrix(0.05,0,0,0.05,19.25,0)" xlink:href="#af"/><use transform="matrix(0.05,0,0,0.05,23.2,0)" xlink:href="#V"/></g><g id="D"><use transform="matrix(0.05,0,0,0.05,0,0)" xlink:href="#aa"/><use transform="matrix(0.05,0,0,0.05,12.950000000000001,0)" xlink:href="#V"/><use transform="matrix(0.05,0,0,0.05,22.950000000000003,0)" xlink:href="#S"/><use transform="matrix(0.05,0,0,0.05,31.950000000000003,0)" xlink:href="#aq"/><use transform="matrix(0.05,0,0,0.05,40.95,0)" xlink:href="#Y"/><use transform="matrix(0.05,0,0,0.05,46.900000000000006,0)" xlink:href="#ae"/><use transform="matrix(0.05,0,0,0.05,50.85000000000001,0)" xlink:href="#T"/><use transform="matrix(0.05,0,0,0.05,60.85,0)" xlink:href="#W"/><use transform="matrix(0.05,0,0,0.05,65.85000000000001,0)" xlink:href="#ae"/><use transform="matrix(0.05,0,0,0.05,69.80000000000001,0)" xlink:href="#ah"/><use transform="matrix(0.05,0,0,0.05,79.80000000000001,0)" xlink:href="#ai"/></g><g id="E"><use transform="matrix(0.05,0,0,0.05,0,0)" xlink:href="#aw"/><use transform="matrix(0.05,0,0,0.05,10,0)" xlink:href="#ah"/><use transform="matrix(0.05,0,0,0.05,20,0)" xlink:href="#aq"/><use transform="matrix(0.05,0,0,0.05,29,0)" xlink:href="#ad"/><use transform="matrix(0.05,0,0,0.05,39,0)" xlink:href="#W"/><use transform="matrix(0.05,0,0,0.05,44,0)" xlink:href="#ae"/><use transform="matrix(0.05,0,0,0.05,47.95,0)" xlink:href="#ah"/><use transform="matrix(0.05,0,0,0.05,57.95,0)" xlink:href="#ai"/></g><g id="F"><use transform="matrix(0.05,0,0,0.05,0,0)" xlink:href="#aw"/><use transform="matrix(0.05,0,0,0.05,10,0)" xlink:href="#ad"/><use transform="matrix(0.05,0,0,0.05,20,0)" xlink:href="#W"/><use transform="matrix(0.05,0,0,0.05,25,0)" xlink:href="#ae"/><use transform="matrix(0.05,0,0,0.05,28.950000000000003,0)" xlink:href="#W"/><use transform="matrix(0.05,0,0,0.05,33.95,0)" xlink:href="#ar"/><use transform="matrix(0.05,0,0,0.05,43.95,0)" xlink:href="#ak"/><use transform="matrix(0.05,0,0,0.05,53.95,0)" xlink:href="#V"/></g><g id="G"><use transform="matrix(0.05,0,0,0.05,0,0)" xlink:href="#aw"/><use transform="matrix(0.05,0,0,0.05,10,0)" xlink:href="#ah"/><use transform="matrix(0.05,0,0,0.05,20,0)" xlink:href="#ai"/><use transform="matrix(0.05,0,0,0.05,30,0)" xlink:href="#az"/><use transform="matrix(0.05,0,0,0.05,40,0)" xlink:href="#ae"/><use transform="matrix(0.05,0,0,0.05,43.95,0)" xlink:href="#W"/><use transform="matrix(0.05,0,0,0.05,48.95,0)" xlink:href="#ar"/><use transform="matrix(0.05,0,0,0.05,58.95,0)" xlink:href="#ak"/><use transform="matrix(0.05,0,0,0.05,68.95,0)" xlink:href="#V"/></g><g id="H"><use transform="matrix(0.05,0,0,0.05,0,0)" xlink:href="#ap"/><use transform="matrix(0.05,0,0,0.05,12,0)" xlink:href="#W"/><use transform="matrix(0.05,0,0,0.05,17,0)" xlink:href="#ad"/><use transform="matrix(0.05,0,0,0.05,27,0)" xlink:href="#Y"/><use transform="matrix(0.05,0,0,0.05,32.95,0)" xlink:href="#W"/><use transform="matrix(0.05,0,0,0.05,37.95,0)" xlink:href="#au"/><use transform="matrix(0.05,0,0,0.05,48.25000000000001,0)" xlink:href="#ae"/><use transform="matrix(0.05,0,0,0.05,52.20000000000002,0)" xlink:href="#ac"/><use transform="matrix(0.05,0,0,0.05,67.15,0)" xlink:href="#V"/></g><g id="I"><use transform="matrix(0.05,0,0,0.05,0,0)" xlink:href="#ab"/><use transform="matrix(0.05,0,0,0.05,12,0)" xlink:href="#ai"/><use transform="matrix(0.05,0,0,0.05,22,0)" xlink:href="#ak"/><use transform="matrix(0.05,0,0,0.05,32,0)" xlink:href="#au"/><use transform="matrix(0.05,0,0,0.05,42.300000000000004,0)" xlink:href="#ae"/><use transform="matrix(0.05,0,0,0.05,46.25000000000001,0)" xlink:href="#ac"/><use transform="matrix(0.05,0,0,0.05,61.20000000000002,0)" xlink:href="#V"/></g><g id="J"><use transform="matrix(0.05,0,0,0.05,0,0)" xlink:href="#ay"/><use transform="matrix(0.05,0,0,0.05,12.950000000000001,0)" xlink:href="#ad"/><use transform="matrix(0.05,0,0,0.05,22.950000000000003,0)" xlink:href="#W"/><use transform="matrix(0.05,0,0,0.05,27.950000000000003,0)" xlink:href="#ae"/><use transform="matrix(0.05,0,0,0.05,31.900000000000002,0)" xlink:href="#ai"/><use transform="matrix(0.05,0,0,0.05,41.900000000000006,0)" xlink:href="#az"/><use transform="matrix(0.05,0,0,0.05,51.900000000000006,0)" xlink:href="#ay"/><use transform="matrix(0.05,0,0,0.05,64.85000000000001,0)" xlink:href="#V"/><use transform="matrix(0.05,0,0,0.05,74.85000000000001,0)" xlink:href="#aj"/><use transform="matrix(0.05,0,0,0.05,79.85000000000001,0)" xlink:href="#Z"/><use transform="matrix(0.05,0,0,0.05,84.85000000000001,0)" xlink:href="#ak"/></g><g id="K"><use transform="matrix(0.05,0,0,0.05,0,0)" xlink:href="#ag"/><use transform="matrix(0.05,0,0,0.05,12.950000000000001,0)" xlink:href="#ad"/><use transform="matrix(0.05,0,0,0.05,22.950000000000003,0)" xlink:href="#W"/><use transform="matrix(0.05,0,0,0.05,27.950000000000003,0)" xlink:href="#V"/><use transform="matrix(0.05,0,0,0.05,37.95,0)" xlink:href="#az"/><use transform="matrix(0.05,0,0,0.05,47.95,0)" xlink:href="#ah"/><use transform="matrix(0.05,0,0,0.05,57.95,0)" xlink:href="#Y"/><use transform="matrix(0.05,0,0,0.05,63.900000000000006,0)" xlink:href="#as"/><use transform="matrix(0.05,0,0,0.05,72.9,0)" xlink:href="#ay"/><use transform="matrix(0.05,0,0,0.05,85.85000000000001,0)" xlink:href="#V"/><use transform="matrix(0.05,0,0,0.05,95.85000000000001,0)" xlink:href="#aj"/><use transform="matrix(0.05,0,0,0.05,100.85000000000001,0)" xlink:href="#Z"/><use transform="matrix(0.05,0,0,0.05,105.85000000000001,0)" xlink:href="#ak"/></g><g id="L"><use transform="matrix(0.05,0,0,0.05,0,0)" xlink:href="#ay"/><use transform="matrix(0.05,0,0,0.05,12.950000000000001,0)" xlink:href="#ad"/><use transform="matrix(0.05,0,0,0.05,22.950000000000003,0)" xlink:href="#W"/><use transform="matrix(0.05,0,0,0.05,27.950000000000003,0)" xlink:href="#ae"/><use transform="matrix(0.05,0,0,0.05,31.900000000000002,0)" xlink:href="#ai"/><use transform="matrix(0.05,0,0,0.05,41.900000000000006,0)" xlink:href="#az"/></g><g id="M"><use transform="matrix(0.05,0,0,0.05,0,0)" xlink:href="#ay"/><use transform="matrix(0.05,0,0,0.05,12.950000000000001,0)" xlink:href="#ad"/><use transform="matrix(0.05,0,0,0.05,22.950000000000003,0)" xlink:href="#W"/><use transform="matrix(0.05,0,0,0.05,27.950000000000003,0)" xlink:href="#ae"/><use transform="matrix(0.05,0,0,0.05,31.900000000000002,0)" xlink:href="#ai"/><use transform="matrix(0.05,0,0,0.05,41.900000000000006,0)" xlink:href="#az"/><use transform="matrix(0.05,0,0,0.05,51.900000000000006,0)" xlink:href="#U"/><use transform="matrix(0.05,0,0,0.05,64.85000000000001,0)" xlink:href="#ar"/><use transform="matrix(0.05,0,0,0.05,74.85000000000001,0)" xlink:href="#ac"/><use transform="matrix(0.05,0,0,0.05,89.80000000000001,0)" xlink:href="#at"/><use transform="matrix(0.05,0,0,0.05,99.80000000000001,0)" xlink:href="#V"/><use transform="matrix(0.05,0,0,0.05,109.80000000000001,0)" xlink:href="#Y"/></g><g id="N"><use transform="matrix(0.05,0,0,0.05,0,0)" xlink:href="#X"/><use transform="matrix(0.05,0,0,0.05,12.950000000000001,0)" xlink:href="#S"/><use transform="matrix(0.05,0,0,0.05,21.950000000000003,0)" xlink:href="#V"/><use transform="matrix(0.05,0,0,0.05,31.950000000000003,0)" xlink:href="#Y"/><use transform="matrix(0.05,0,0,0.05,37.900000000000006,0)" xlink:href="#S"/></g><g id="O"><use transform="matrix(0.05,0,0,0.05,0,0)" xlink:href="#av"/><use transform="matrix(0.05,0,0,0.05,10.950000000000001,0)" xlink:href="#ae"/><use transform="matrix(0.05,0,0,0.05,14.9,0)" xlink:href="#Y"/><use transform="matrix(0.05,0,0,0.05,20.85,0)" xlink:href="#S"/><use transform="matrix(0.05,0,0,0.05,29.85,0)" xlink:href="#W"/><use transform="matrix(0.05,0,0,0.05,34.85,0)" xlink:href="#U"/><use transform="matrix(0.05,0,0,0.05,47.800000000000004,0)" xlink:href="#ad"/><use transform="matrix(0.05,0,0,0.05,57.800000000000004,0)" xlink:href="#ac"/><use transform="matrix(0.05,0,0,0.05,72.75,0)" xlink:href="#V"/></g><g id="P"><use transform="matrix(0.05,0,0,0.05,0,0)" xlink:href="#aw"/><use transform="matrix(0.05,0,0,0.05,10,0)" xlink:href="#ad"/><use transform="matrix(0.05,0,0,0.05,20,0)" xlink:href="#S"/><use transform="matrix(0.05,0,0,0.05,29,0)" xlink:href="#W"/><use transform="matrix(0.05,0,0,0.05,34,0)" xlink:href="#U"/><use transform="matrix(0.05,0,0,0.05,46.95,0)" xlink:href="#ad"/><use transform="matrix(0.05,0,0,0.05,56.95,0)" xlink:href="#ac"/><use transform="matrix(0.05,0,0,0.05,71.9,0)" xlink:href="#V"/></g><g id="Q"><use transform="matrix(0.05,0,0,0.05,0,0)" xlink:href="#ag"/><use transform="matrix(0.05,0,0,0.05,12.950000000000001,0)" xlink:href="#ad"/><use transform="matrix(0.05,0,0,0.05,22.950000000000003,0)" xlink:href="#W"/><use transform="matrix(0.05,0,0,0.05,27.950000000000003,0)" xlink:href="#V"/><use transform="matrix(0.05,0,0,0.05,37.95,0)" xlink:href="#az"/><use transform="matrix(0.05,0,0,0.05,47.95,0)" xlink:href="#ah"/><use transform="matrix(0.05,0,0,0.05,57.95,0)" xlink:href="#Y"/><use transform="matrix(0.05,0,0,0.05,63.900000000000006,0)" xlink:href="#as"/></g></defs></g></svg>